<svg xmlns="http://www.w3.org/2000/svg" viewBox="0 0 500 750" width="500" height="750" role="img" aria-label="Heat poster">
  <defs>
    <linearGradient id="bg" x1="0" y1="0" x2="0.35" y2="1">
      <stop offset="0%" stop-color="#1a2e3d"/>
      <stop offset="52%" stop-color="#0e161e"/>
      <stop offset="100%" stop-color="#050507"/>
    </linearGradient>
    <radialGradient id="glow">
      <stop offset="0%" stop-color="#3d7296" stop-opacity="0.5"/>
      <stop offset="100%" stop-color="#3d7296" stop-opacity="0"/>
    </radialGradient>
    <radialGradient id="orbFill" cx="0.36" cy="0.3">
      <stop offset="0%" stop-color="#779cb6" stop-opacity="0.95"/>
      <stop offset="62%" stop-color="#244156" stop-opacity="0.95"/>
      <stop offset="100%" stop-color="#050507" stop-opacity="0.98"/>
    </radialGradient>
    <linearGradient id="beam" x1="0" y1="0" x2="0" y2="1">
      <stop offset="0%" stop-color="#9eb9cb" stop-opacity="0.42"/>
      <stop offset="100%" stop-color="#3d7296" stop-opacity="0"/>
    </linearGradient>
    <linearGradient id="scrim" x1="0" y1="0" x2="0" y2="1">
      <stop offset="0%" stop-color="#050507" stop-opacity="0"/>
      <stop offset="58%" stop-color="#050507" stop-opacity="0.72"/>
      <stop offset="100%" stop-color="#050507" stop-opacity="0.97"/>
    </linearGradient>
    <linearGradient id="sideScrim" x1="0" y1="0" x2="1" y2="0">
      <stop offset="0%" stop-color="#050507" stop-opacity="0.88"/>
      <stop offset="60%" stop-color="#050507" stop-opacity="0.1"/>
      <stop offset="100%" stop-color="#050507" stop-opacity="0"/>
    </linearGradient>
    <radialGradient id="vig" cx="0.5" cy="0.5" r="0.75">
      <stop offset="55%" stop-color="#050507" stop-opacity="0"/>
      <stop offset="100%" stop-color="#050507" stop-opacity="0.72"/>
    </radialGradient>
    <filter id="grain-heat" x="0" y="0" width="100%" height="100%">
      <feTurbulence type="fractalNoise" baseFrequency="0.85" numOctaves="3" stitchTiles="stitch"/>
      <feColorMatrix type="saturate" values="0"/>
    </filter>
  </defs>
  <rect width="500" height="750" fill="url(#bg)"/>
  <ellipse cx="250" cy="270" rx="360" ry="315" fill="url(#glow)"/>
  <g>
    <rect x="-30.0" y="593.6" width="77.3" height="141.4" fill="#0c1319"/>
    <rect x="52.3" y="570.5" width="83.7" height="164.5" fill="#0c1319"/>
    <rect x="141.0" y="664.4" width="82.0" height="70.6" fill="#0c1319"/>
    <rect x="228.0" y="612.3" width="90.0" height="122.7" fill="#0c1319"/>
    <rect x="323.0" y="591.6" width="42.6" height="143.4" fill="#0c1319"/>
    <rect x="370.6" y="647.0" width="46.6" height="88.0" fill="#0c1319"/>
    <rect x="422.3" y="585.7" width="71.3" height="149.3" fill="#0c1319"/>
    <rect x="498.5" y="580.8" width="73.5" height="154.2" fill="#0c1319"/>
    <rect x="-30.0" y="506.6" width="71.4" height="228.4" fill="#131f2a"/>
    <rect x="46.4" y="520.7" width="36.6" height="214.3" fill="#131f2a"/>
    <rect x="88.1" y="609.8" width="56.5" height="125.2" fill="#131f2a"/>
    <rect x="149.5" y="531.3" width="36.9" height="203.7" fill="#131f2a"/>
    <rect x="191.4" y="621.1" width="65.3" height="113.9" fill="#131f2a"/>
    <rect x="261.7" y="594.3" width="59.4" height="140.7" fill="#131f2a"/>
    <rect x="326.1" y="552.0" width="81.5" height="183.0" fill="#131f2a"/>
    <rect x="412.6" y="605.1" width="79.3" height="129.9" fill="#131f2a"/>
    <rect x="496.9" y="488.3" width="83.0" height="246.7" fill="#131f2a"/>
    <rect x="-30.0" y="455.2" width="62.2" height="279.8" fill="#192c3a"/>
    <rect x="-21.0" y="491.2" width="4" height="6" fill="#94b1c5" fill-opacity="0.58"/>
    <rect x="9.0" y="491.2" width="4" height="6" fill="#94b1c5" fill-opacity="0.71"/>
    <rect x="-6.0" y="513.2" width="4" height="6" fill="#94b1c5" fill-opacity="0.59"/>
    <rect x="-21.0" y="535.2" width="4" height="6" fill="#94b1c5" fill-opacity="0.44"/>
    <rect x="9.0" y="557.2" width="4" height="6" fill="#94b1c5" fill-opacity="0.73"/>
    <rect x="-6.0" y="579.2" width="4" height="6" fill="#94b1c5" fill-opacity="0.41"/>
    <rect x="9.0" y="579.2" width="4" height="6" fill="#94b1c5" fill-opacity="0.34"/>
    <rect x="-21.0" y="667.2" width="4" height="6" fill="#94b1c5" fill-opacity="0.42"/>
    <rect x="-6.0" y="667.2" width="4" height="6" fill="#94b1c5" fill-opacity="0.35"/>
    <rect x="9.0" y="689.2" width="4" height="6" fill="#94b1c5" fill-opacity="0.49"/>
    <rect x="-21.0" y="711.2" width="4" height="6" fill="#94b1c5" fill-opacity="0.42"/>
    <rect x="37.2" y="458.3" width="37.9" height="276.7" fill="#192c3a"/>
    <rect x="46.2" y="472.3" width="4" height="6" fill="#94b1c5" fill-opacity="0.44"/>
    <rect x="61.2" y="494.3" width="4" height="6" fill="#94b1c5" fill-opacity="0.60"/>
    <rect x="61.2" y="516.3" width="4" height="6" fill="#94b1c5" fill-opacity="0.60"/>
    <rect x="46.2" y="538.3" width="4" height="6" fill="#94b1c5" fill-opacity="0.69"/>
    <rect x="61.2" y="538.3" width="4" height="6" fill="#94b1c5" fill-opacity="0.56"/>
    <rect x="46.2" y="582.3" width="4" height="6" fill="#94b1c5" fill-opacity="0.40"/>
    <rect x="46.2" y="604.3" width="4" height="6" fill="#94b1c5" fill-opacity="0.74"/>
    <rect x="61.2" y="626.3" width="4" height="6" fill="#94b1c5" fill-opacity="0.63"/>
    <rect x="61.2" y="714.3" width="4" height="6" fill="#94b1c5" fill-opacity="0.48"/>
    <rect x="80.1" y="509.7" width="54.0" height="225.3" fill="#192c3a"/>
    <rect x="104.1" y="523.7" width="4" height="6" fill="#94b1c5" fill-opacity="0.39"/>
    <rect x="119.1" y="523.7" width="4" height="6" fill="#94b1c5" fill-opacity="0.33"/>
    <rect x="89.1" y="567.7" width="4" height="6" fill="#94b1c5" fill-opacity="0.35"/>
    <rect x="104.1" y="567.7" width="4" height="6" fill="#94b1c5" fill-opacity="0.29"/>
    <rect x="119.1" y="567.7" width="4" height="6" fill="#94b1c5" fill-opacity="0.54"/>
    <rect x="119.1" y="633.7" width="4" height="6" fill="#94b1c5" fill-opacity="0.39"/>
    <rect x="104.1" y="655.7" width="4" height="6" fill="#94b1c5" fill-opacity="0.32"/>
    <rect x="119.1" y="655.7" width="4" height="6" fill="#94b1c5" fill-opacity="0.45"/>
    <rect x="89.1" y="677.7" width="4" height="6" fill="#94b1c5" fill-opacity="0.45"/>
    <rect x="104.1" y="699.7" width="4" height="6" fill="#94b1c5" fill-opacity="0.29"/>
    <rect x="139.1" y="538.6" width="51.4" height="196.4" fill="#192c3a"/>
    <rect x="178.1" y="574.6" width="4" height="6" fill="#94b1c5" fill-opacity="0.68"/>
    <rect x="148.1" y="596.6" width="4" height="6" fill="#94b1c5" fill-opacity="0.57"/>
    <rect x="178.1" y="618.6" width="4" height="6" fill="#94b1c5" fill-opacity="0.35"/>
    <rect x="178.1" y="640.6" width="4" height="6" fill="#94b1c5" fill-opacity="0.28"/>
    <rect x="178.1" y="662.6" width="4" height="6" fill="#94b1c5" fill-opacity="0.67"/>
    <rect x="163.1" y="684.6" width="4" height="6" fill="#94b1c5" fill-opacity="0.67"/>
    <rect x="178.1" y="706.6" width="4" height="6" fill="#94b1c5" fill-opacity="0.31"/>
    <rect x="195.5" y="481.4" width="36.7" height="253.6" fill="#192c3a"/>
    <rect x="204.5" y="495.4" width="4" height="6" fill="#94b1c5" fill-opacity="0.28"/>
    <rect x="204.5" y="517.4" width="4" height="6" fill="#94b1c5" fill-opacity="0.61"/>
    <rect x="204.5" y="583.4" width="4" height="6" fill="#94b1c5" fill-opacity="0.65"/>
    <rect x="219.5" y="605.4" width="4" height="6" fill="#94b1c5" fill-opacity="0.69"/>
    <rect x="219.5" y="627.4" width="4" height="6" fill="#94b1c5" fill-opacity="0.43"/>
    <rect x="204.5" y="649.4" width="4" height="6" fill="#94b1c5" fill-opacity="0.29"/>
    <rect x="219.5" y="649.4" width="4" height="6" fill="#94b1c5" fill-opacity="0.52"/>
    <rect x="219.5" y="671.4" width="4" height="6" fill="#94b1c5" fill-opacity="0.52"/>
    <rect x="204.5" y="715.4" width="4" height="6" fill="#94b1c5" fill-opacity="0.73"/>
    <rect x="237.2" y="505.4" width="54.8" height="229.6" fill="#192c3a"/>
    <rect x="261.2" y="519.4" width="4" height="6" fill="#94b1c5" fill-opacity="0.65"/>
    <rect x="276.2" y="519.4" width="4" height="6" fill="#94b1c5" fill-opacity="0.31"/>
    <rect x="246.2" y="541.4" width="4" height="6" fill="#94b1c5" fill-opacity="0.40"/>
    <rect x="276.2" y="541.4" width="4" height="6" fill="#94b1c5" fill-opacity="0.64"/>
    <rect x="261.2" y="563.4" width="4" height="6" fill="#94b1c5" fill-opacity="0.42"/>
    <rect x="246.2" y="585.4" width="4" height="6" fill="#94b1c5" fill-opacity="0.66"/>
    <rect x="276.2" y="585.4" width="4" height="6" fill="#94b1c5" fill-opacity="0.71"/>
    <rect x="246.2" y="629.4" width="4" height="6" fill="#94b1c5" fill-opacity="0.55"/>
    <rect x="261.2" y="651.4" width="4" height="6" fill="#94b1c5" fill-opacity="0.38"/>
    <rect x="246.2" y="673.4" width="4" height="6" fill="#94b1c5" fill-opacity="0.51"/>
    <rect x="261.2" y="673.4" width="4" height="6" fill="#94b1c5" fill-opacity="0.60"/>
    <rect x="246.2" y="717.4" width="4" height="6" fill="#94b1c5" fill-opacity="0.43"/>
    <rect x="276.2" y="717.4" width="4" height="6" fill="#94b1c5" fill-opacity="0.49"/>
    <rect x="297.0" y="411.4" width="70.1" height="323.6" fill="#192c3a"/>
    <rect x="306.0" y="425.4" width="4" height="6" fill="#94b1c5" fill-opacity="0.44"/>
    <rect x="351.0" y="447.4" width="4" height="6" fill="#94b1c5" fill-opacity="0.36"/>
    <rect x="351.0" y="469.4" width="4" height="6" fill="#94b1c5" fill-opacity="0.55"/>
    <rect x="351.0" y="491.4" width="4" height="6" fill="#94b1c5" fill-opacity="0.59"/>
    <rect x="321.0" y="513.4" width="4" height="6" fill="#94b1c5" fill-opacity="0.33"/>
    <rect x="336.0" y="513.4" width="4" height="6" fill="#94b1c5" fill-opacity="0.55"/>
    <rect x="351.0" y="513.4" width="4" height="6" fill="#94b1c5" fill-opacity="0.51"/>
    <rect x="321.0" y="535.4" width="4" height="6" fill="#94b1c5" fill-opacity="0.32"/>
    <rect x="351.0" y="557.4" width="4" height="6" fill="#94b1c5" fill-opacity="0.61"/>
    <rect x="306.0" y="579.4" width="4" height="6" fill="#94b1c5" fill-opacity="0.30"/>
    <rect x="321.0" y="579.4" width="4" height="6" fill="#94b1c5" fill-opacity="0.72"/>
    <rect x="351.0" y="579.4" width="4" height="6" fill="#94b1c5" fill-opacity="0.49"/>
    <rect x="321.0" y="623.4" width="4" height="6" fill="#94b1c5" fill-opacity="0.53"/>
    <rect x="351.0" y="623.4" width="4" height="6" fill="#94b1c5" fill-opacity="0.38"/>
    <rect x="321.0" y="645.4" width="4" height="6" fill="#94b1c5" fill-opacity="0.26"/>
    <rect x="336.0" y="667.4" width="4" height="6" fill="#94b1c5" fill-opacity="0.70"/>
    <rect x="306.0" y="711.4" width="4" height="6" fill="#94b1c5" fill-opacity="0.73"/>
    <rect x="321.0" y="711.4" width="4" height="6" fill="#94b1c5" fill-opacity="0.66"/>
    <rect x="372.2" y="614.9" width="84.3" height="120.1" fill="#192c3a"/>
    <rect x="381.2" y="628.9" width="4" height="6" fill="#94b1c5" fill-opacity="0.72"/>
    <rect x="426.2" y="628.9" width="4" height="6" fill="#94b1c5" fill-opacity="0.48"/>
    <rect x="411.2" y="650.9" width="4" height="6" fill="#94b1c5" fill-opacity="0.52"/>
    <rect x="426.2" y="650.9" width="4" height="6" fill="#94b1c5" fill-opacity="0.39"/>
    <rect x="396.2" y="672.9" width="4" height="6" fill="#94b1c5" fill-opacity="0.73"/>
    <rect x="441.2" y="672.9" width="4" height="6" fill="#94b1c5" fill-opacity="0.62"/>
    <rect x="396.2" y="694.9" width="4" height="6" fill="#94b1c5" fill-opacity="0.45"/>
    <rect x="441.2" y="716.9" width="4" height="6" fill="#94b1c5" fill-opacity="0.61"/>
    <rect x="461.5" y="440.5" width="40.8" height="294.5" fill="#192c3a"/>
    <rect x="485.5" y="454.5" width="4" height="6" fill="#94b1c5" fill-opacity="0.57"/>
    <rect x="485.5" y="498.5" width="4" height="6" fill="#94b1c5" fill-opacity="0.65"/>
    <rect x="485.5" y="520.5" width="4" height="6" fill="#94b1c5" fill-opacity="0.37"/>
    <rect x="485.5" y="586.5" width="4" height="6" fill="#94b1c5" fill-opacity="0.66"/>
    <rect x="485.5" y="608.5" width="4" height="6" fill="#94b1c5" fill-opacity="0.29"/>
    <rect x="485.5" y="652.5" width="4" height="6" fill="#94b1c5" fill-opacity="0.33"/>
    <rect x="470.5" y="674.5" width="4" height="6" fill="#94b1c5" fill-opacity="0.33"/>
    <rect x="470.5" y="696.5" width="4" height="6" fill="#94b1c5" fill-opacity="0.66"/>
    <rect x="470.5" y="718.5" width="4" height="6" fill="#94b1c5" fill-opacity="0.26"/>
    <rect x="507.3" y="402.7" width="67.6" height="332.3" fill="#192c3a"/>
    <rect x="531.3" y="416.7" width="4" height="6" fill="#94b1c5" fill-opacity="0.32"/>
    <rect x="546.3" y="416.7" width="4" height="6" fill="#94b1c5" fill-opacity="0.43"/>
    <rect x="561.3" y="416.7" width="4" height="6" fill="#94b1c5" fill-opacity="0.37"/>
    <rect x="516.3" y="438.7" width="4" height="6" fill="#94b1c5" fill-opacity="0.27"/>
    <rect x="531.3" y="438.7" width="4" height="6" fill="#94b1c5" fill-opacity="0.38"/>
    <rect x="561.3" y="438.7" width="4" height="6" fill="#94b1c5" fill-opacity="0.40"/>
    <rect x="561.3" y="460.7" width="4" height="6" fill="#94b1c5" fill-opacity="0.54"/>
    <rect x="516.3" y="482.7" width="4" height="6" fill="#94b1c5" fill-opacity="0.44"/>
    <rect x="546.3" y="504.7" width="4" height="6" fill="#94b1c5" fill-opacity="0.56"/>
    <rect x="561.3" y="526.7" width="4" height="6" fill="#94b1c5" fill-opacity="0.47"/>
    <rect x="516.3" y="548.7" width="4" height="6" fill="#94b1c5" fill-opacity="0.59"/>
    <rect x="561.3" y="548.7" width="4" height="6" fill="#94b1c5" fill-opacity="0.53"/>
    <rect x="531.3" y="570.7" width="4" height="6" fill="#94b1c5" fill-opacity="0.65"/>
    <rect x="561.3" y="570.7" width="4" height="6" fill="#94b1c5" fill-opacity="0.53"/>
    <rect x="531.3" y="592.7" width="4" height="6" fill="#94b1c5" fill-opacity="0.75"/>
    <rect x="546.3" y="592.7" width="4" height="6" fill="#94b1c5" fill-opacity="0.32"/>
    <rect x="531.3" y="614.7" width="4" height="6" fill="#94b1c5" fill-opacity="0.46"/>
    <rect x="516.3" y="636.7" width="4" height="6" fill="#94b1c5" fill-opacity="0.73"/>
    <rect x="531.3" y="636.7" width="4" height="6" fill="#94b1c5" fill-opacity="0.59"/>
    <rect x="516.3" y="680.7" width="4" height="6" fill="#94b1c5" fill-opacity="0.60"/>
    <rect x="516.3" y="702.7" width="4" height="6" fill="#94b1c5" fill-opacity="0.43"/>
  </g>
  <rect width="500" height="750" fill="url(#vig)"/>
  <rect y="345" width="500" height="405" fill="url(#scrim)"/>
  <rect width="500" height="750" filter="url(#grain-heat)" opacity="0.055"/>
  <g font-family="Inter, 'Segoe UI', 'Helvetica Neue', Arial, sans-serif">
    <rect x="52" y="618" width="34" height="2" fill="#a8c0d0" fill-opacity="0.85"/>
    <text x="52" y="658" font-size="52" font-weight="700" letter-spacing="-1" fill="#f5f5f7">HEAT</text>
    <text x="52" y="702" font-size="17" font-weight="500" letter-spacing="4" fill="#f5f5f7" fill-opacity="0.62">1995</text>
  </g>
</svg>
